<svg width="381" height="247" viewBox="0 0 381 247" fill="none" xmlns="http://www.w3.org/2000/svg">
<rect x="0.5" y="0.5" width="163" height="163" rx="11.5" stroke="#F7F7F7"/>
<rect x="329.5" y="0.5" width="49" height="164" rx="8.5" stroke="#F7F7F7"/>
<rect x="196.5" y="246.5" width="49" height="184" rx="8.5" transform="rotate(-90 196.5 246.5)" stroke="#F7F7F7"/>
<rect x="196.5" y="163.5" width="28" height="101" rx="8.5" transform="rotate(-90 196.5 163.5)" stroke="#F7F7F7"/>
<rect x="196.5" y="28.5" width="28" height="101" rx="8.5" transform="rotate(-90 196.5 28.5)" stroke="#F7F7F7"/>
<rect x="4.5" y="4.5" width="155" height="155" rx="8.5" stroke="#F7F7F7"/>
<circle cx="15" cy="15" r="3" fill="#FF5C5F"/>
<circle cx="23" cy="15" r="3" fill="#FAC813"/>
<circle cx="31" cy="15" r="3" fill="#34C759"/>
<rect x="16" y="133" width="132" height="18" rx="9" fill="#333333" fill-opacity="0.13"/>
<rect x="16.5" y="133.5" width="131" height="17" rx="8.5" stroke="#9C9A9A" stroke-opacity="0.08"/>
<circle cx="139" cy="142" r="7" fill="black"/>
<path d="M139.177 139.823C139.079 139.726 138.921 139.726 138.823 139.823L137.232 141.414C137.135 141.512 137.135 141.67 137.232 141.768C137.33 141.865 137.488 141.865 137.586 141.768L139 140.354L140.414 141.768C140.512 141.865 140.67 141.865 140.768 141.768C140.865 141.67 140.865 141.512 140.768 141.414L139.177 139.823ZM139 144H139.25V140H139H138.75V144H139Z" fill="white"/>
<path d="M56.53 32V30.362L55.21 27.62H55.768L56.638 29.42C56.686 29.52 56.724 29.606 56.752 29.678C56.78 29.746 56.798 29.796 56.806 29.828C56.814 29.796 56.832 29.746 56.86 29.678C56.892 29.606 56.932 29.52 56.98 29.42L57.832 27.62H58.39L57.07 30.362V32H56.53ZM60.3977 32.048C60.1337 32.048 59.9057 31.998 59.7137 31.898C59.5217 31.798 59.3717 31.654 59.2637 31.466C59.1597 31.274 59.1077 31.048 59.1077 30.788V29.912C59.1077 29.648 59.1597 29.422 59.2637 29.234C59.3717 29.046 59.5217 28.902 59.7137 28.802C59.9057 28.702 60.1337 28.652 60.3977 28.652C60.6617 28.652 60.8897 28.702 61.0817 28.802C61.2737 28.902 61.4217 29.046 61.5257 29.234C61.6337 29.422 61.6877 29.646 61.6877 29.906V30.788C61.6877 31.048 61.6337 31.274 61.5257 31.466C61.4217 31.654 61.2737 31.798 61.0817 31.898C60.8897 31.998 60.6617 32.048 60.3977 32.048ZM60.3977 31.568C60.6337 31.568 60.8177 31.502 60.9497 31.37C61.0817 31.238 61.1477 31.044 61.1477 30.788V29.912C61.1477 29.656 61.0817 29.462 60.9497 29.33C60.8177 29.198 60.6337 29.132 60.3977 29.132C60.1657 29.132 59.9817 29.198 59.8457 29.33C59.7137 29.462 59.6477 29.656 59.6477 29.912V30.788C59.6477 31.044 59.7137 31.238 59.8457 31.37C59.9817 31.502 60.1657 31.568 60.3977 31.568ZM63.9893 32.06C63.6093 32.06 63.3053 31.948 63.0773 31.724C62.8493 31.496 62.7353 31.188 62.7353 30.8V28.7H63.2753V30.8C63.2753 31.048 63.3393 31.242 63.4673 31.382C63.5953 31.518 63.7693 31.586 63.9893 31.586C64.2133 31.586 64.3893 31.518 64.5173 31.382C64.6493 31.242 64.7153 31.048 64.7153 30.8V28.7H65.2553V30.8C65.2553 31.188 65.1393 31.496 64.9073 31.724C64.6753 31.948 64.3693 32.06 63.9893 32.06ZM66.459 32V28.7H66.987V29.33H67.113L66.939 29.72C66.939 29.364 67.015 29.096 67.167 28.916C67.323 28.732 67.553 28.64 67.857 28.64C68.205 28.64 68.481 28.75 68.685 28.97C68.893 29.186 68.997 29.48 68.997 29.852V30.05H68.457V29.9C68.457 29.64 68.393 29.442 68.265 29.306C68.141 29.166 67.963 29.096 67.731 29.096C67.503 29.096 67.323 29.166 67.191 29.306C67.063 29.446 66.999 29.644 66.999 29.9V32H66.459ZM73.2883 32L74.4283 27.62H75.1543L76.2883 32H75.7423L75.4543 30.836H74.1283L73.8403 32H73.2883ZM74.2363 30.38H75.3403L75.0043 29.03C74.9403 28.774 74.8903 28.56 74.8543 28.388C74.8183 28.216 74.7963 28.104 74.7883 28.052C74.7803 28.104 74.7583 28.216 74.7223 28.388C74.6863 28.56 74.6363 28.772 74.5723 29.024L74.2363 30.38ZM77.2159 32V31.508H78.1099V28.112H77.2159V27.62H79.5559V28.112H78.6619V31.508H79.5559V32H77.2159ZM84.3333 32V27.62H85.7433C86.0153 27.62 86.2513 27.674 86.4513 27.782C86.6513 27.886 86.8053 28.034 86.9133 28.226C87.0253 28.418 87.0813 28.646 87.0813 28.91C87.0813 29.17 87.0253 29.398 86.9133 29.594C86.8053 29.786 86.6513 29.936 86.4513 30.044C86.2513 30.148 86.0153 30.2 85.7433 30.2H84.8733V32H84.3333ZM84.8733 29.714H85.7433C85.9793 29.714 86.1673 29.642 86.3073 29.498C86.4513 29.35 86.5233 29.154 86.5233 28.91C86.5233 28.662 86.4513 28.466 86.3073 28.322C86.1673 28.178 85.9793 28.106 85.7433 28.106H84.8733V29.714ZM88.0449 32V28.7H88.5729V29.33H88.6989L88.5249 29.72C88.5249 29.364 88.6009 29.096 88.7529 28.916C88.9089 28.732 89.1389 28.64 89.4429 28.64C89.7909 28.64 90.0669 28.75 90.2709 28.97C90.4789 29.186 90.5829 29.48 90.5829 29.852V30.05H90.0429V29.9C90.0429 29.64 89.9789 29.442 89.8509 29.306C89.7269 29.166 89.5489 29.096 89.3169 29.096C89.0889 29.096 88.9089 29.166 88.7769 29.306C88.6489 29.446 88.5849 29.644 88.5849 29.9V32H88.0449ZM92.7766 32.048C92.5126 32.048 92.2846 31.998 92.0926 31.898C91.9006 31.798 91.7506 31.654 91.6426 31.466C91.5386 31.274 91.4866 31.048 91.4866 30.788V29.912C91.4866 29.648 91.5386 29.422 91.6426 29.234C91.7506 29.046 91.9006 28.902 92.0926 28.802C92.2846 28.702 92.5126 28.652 92.7766 28.652C93.0406 28.652 93.2686 28.702 93.4606 28.802C93.6526 28.902 93.8006 29.046 93.9046 29.234C94.0126 29.422 94.0666 29.646 94.0666 29.906V30.788C94.0666 31.048 94.0126 31.274 93.9046 31.466C93.8006 31.654 93.6526 31.798 93.4606 31.898C93.2686 31.998 93.0406 32.048 92.7766 32.048ZM92.7766 31.568C93.0126 31.568 93.1966 31.502 93.3286 31.37C93.4606 31.238 93.5266 31.044 93.5266 30.788V29.912C93.5266 29.656 93.4606 29.462 93.3286 29.33C93.1966 29.198 93.0126 29.132 92.7766 29.132C92.5446 29.132 92.3606 29.198 92.2246 29.33C92.0926 29.462 92.0266 29.656 92.0266 29.912V30.788C92.0266 31.044 92.0926 31.238 92.2246 31.37C92.3606 31.502 92.5446 31.568 92.7766 31.568ZM96.1822 32.06C95.8542 32.06 95.5882 31.95 95.3842 31.73C95.1842 31.51 95.0842 31.212 95.0842 30.836V29.87C95.0842 29.49 95.1842 29.19 95.3842 28.97C95.5842 28.75 95.8502 28.64 96.1822 28.64C96.4542 28.64 96.6722 28.714 96.8362 28.862C97.0002 29.01 97.0822 29.208 97.0822 29.456L96.9742 29.33H97.0942L97.0822 28.58V27.62H97.6222V32H97.0822V31.37H96.9742L97.0822 31.244C97.0822 31.496 97.0002 31.696 96.8362 31.844C96.6722 31.988 96.4542 32.06 96.1822 32.06ZM96.3622 31.592C96.5862 31.592 96.7622 31.522 96.8902 31.382C97.0182 31.242 97.0822 31.048 97.0822 30.8V29.9C97.0822 29.652 97.0182 29.458 96.8902 29.318C96.7622 29.178 96.5862 29.108 96.3622 29.108C96.1342 29.108 95.9542 29.176 95.8222 29.312C95.6902 29.448 95.6242 29.644 95.6242 29.9V30.8C95.6242 31.056 95.6902 31.252 95.8222 31.388C95.9542 31.524 96.1342 31.592 96.3622 31.592ZM99.9659 32.06C99.5859 32.06 99.2819 31.948 99.0539 31.724C98.8259 31.496 98.7119 31.188 98.7119 30.8V28.7H99.2519V30.8C99.2519 31.048 99.3159 31.242 99.4439 31.382C99.5719 31.518 99.7459 31.586 99.9659 31.586C100.19 31.586 100.366 31.518 100.494 31.382C100.626 31.242 100.692 31.048 100.692 30.8V28.7H101.232V30.8C101.232 31.188 101.116 31.496 100.884 31.724C100.652 31.948 100.346 32.06 99.9659 32.06ZM103.594 32.06C103.33 32.06 103.098 32.01 102.898 31.91C102.702 31.81 102.55 31.666 102.442 31.478C102.334 31.286 102.28 31.06 102.28 30.8V29.9C102.28 29.636 102.334 29.41 102.442 29.222C102.55 29.034 102.702 28.89 102.898 28.79C103.098 28.69 103.33 28.64 103.594 28.64C103.974 28.64 104.28 28.742 104.512 28.946C104.744 29.15 104.866 29.428 104.878 29.78H104.338C104.326 29.568 104.254 29.406 104.122 29.294C103.994 29.178 103.818 29.12 103.594 29.12C103.358 29.12 103.17 29.188 103.03 29.324C102.89 29.456 102.82 29.646 102.82 29.894V30.8C102.82 31.048 102.89 31.24 103.03 31.376C103.17 31.512 103.358 31.58 103.594 31.58C103.818 31.58 103.994 31.522 104.122 31.406C104.254 31.29 104.326 31.128 104.338 30.92H104.878C104.866 31.272 104.744 31.55 104.512 31.754C104.28 31.958 103.974 32.06 103.594 32.06ZM107.527 32C107.243 32 107.021 31.924 106.861 31.772C106.705 31.62 106.627 31.406 106.627 31.13V29.192H105.697V28.7H106.627V27.77H107.167V28.7H108.487V29.192H107.167V31.13C107.167 31.382 107.287 31.508 107.527 31.508H108.427V32H107.527Z" fill="black"/>
<path d="M211.128 17.07C210.792 17.07 210.503 17.014 210.26 16.902C210.022 16.79 209.838 16.629 209.707 16.419C209.576 16.209 209.509 15.9593 209.504 15.67H210.134C210.134 15.9267 210.22 16.1297 210.393 16.279C210.57 16.4283 210.815 16.503 211.128 16.503C211.422 16.503 211.651 16.4307 211.814 16.286C211.982 16.1413 212.066 15.9407 212.066 15.684C212.066 15.4787 212.01 15.299 211.898 15.145C211.791 14.991 211.634 14.8837 211.429 14.823L210.736 14.606C210.386 14.4987 210.115 14.319 209.924 14.067C209.737 13.815 209.644 13.5187 209.644 13.178C209.644 12.9027 209.705 12.6647 209.826 12.464C209.952 12.2587 210.127 12.1 210.351 11.988C210.575 11.8713 210.839 11.813 211.142 11.813C211.59 11.813 211.949 11.939 212.22 12.191C212.491 12.4383 212.628 12.7697 212.633 13.185H212.003C212.003 12.933 211.926 12.737 211.772 12.597C211.623 12.4523 211.41 12.38 211.135 12.38C210.864 12.38 210.652 12.4453 210.498 12.576C210.349 12.7067 210.274 12.8887 210.274 13.122C210.274 13.332 210.33 13.514 210.442 13.668C210.554 13.822 210.715 13.9317 210.925 13.997L211.625 14.221C211.966 14.3283 212.229 14.5103 212.416 14.767C212.603 15.0237 212.696 15.3247 212.696 15.67C212.696 15.95 212.631 16.195 212.5 16.405C212.369 16.615 212.185 16.7783 211.947 16.895C211.714 17.0117 211.441 17.07 211.128 17.07ZM215.297 17.07C214.994 17.07 214.728 17.0093 214.499 16.888C214.275 16.7667 214.1 16.5963 213.974 16.377C213.853 16.153 213.792 15.894 213.792 15.6V14.55C213.792 14.2513 213.853 13.9923 213.974 13.773C214.1 13.5537 214.275 13.3833 214.499 13.262C214.728 13.1407 214.994 13.08 215.297 13.08C215.601 13.08 215.864 13.1407 216.088 13.262C216.317 13.3833 216.492 13.5537 216.613 13.773C216.739 13.9923 216.802 14.2513 216.802 14.55V15.229H214.408V15.6C214.408 15.9033 214.485 16.1367 214.639 16.3C214.793 16.4587 215.013 16.538 215.297 16.538C215.54 16.538 215.736 16.496 215.885 16.412C216.035 16.3233 216.126 16.1927 216.158 16.02H216.788C216.746 16.342 216.588 16.5987 216.312 16.79C216.042 16.9767 215.703 17.07 215.297 17.07ZM216.186 14.809V14.55C216.186 14.2467 216.109 14.0133 215.955 13.85C215.806 13.6867 215.587 13.605 215.297 13.605C215.013 13.605 214.793 13.6867 214.639 13.85C214.485 14.0133 214.408 14.2467 214.408 14.55V14.753H216.235L216.186 14.809ZM219.523 17.07C219.215 17.07 218.944 17.0117 218.711 16.895C218.482 16.7783 218.305 16.6103 218.179 16.391C218.053 16.167 217.99 15.9033 217.99 15.6V14.55C217.99 14.242 218.053 13.9783 218.179 13.759C218.305 13.5397 218.482 13.3717 218.711 13.255C218.944 13.1383 219.215 13.08 219.523 13.08C219.966 13.08 220.323 13.199 220.594 13.437C220.864 13.675 221.007 13.9993 221.021 14.41H220.391C220.377 14.1627 220.293 13.9737 220.139 13.843C219.989 13.7077 219.784 13.64 219.523 13.64C219.247 13.64 219.028 13.7193 218.865 13.878C218.701 14.032 218.62 14.2537 218.62 14.543V15.6C218.62 15.8893 218.701 16.1133 218.865 16.272C219.028 16.4307 219.247 16.51 219.523 16.51C219.784 16.51 219.989 16.4423 220.139 16.307C220.293 16.1717 220.377 15.9827 220.391 15.74H221.021C221.007 16.1507 220.864 16.475 220.594 16.713C220.323 16.951 219.966 17.07 219.523 17.07ZM223.685 17.07C223.241 17.07 222.887 16.9393 222.621 16.678C222.355 16.412 222.222 16.0527 222.222 15.6V13.15H222.852V15.6C222.852 15.8893 222.926 16.1157 223.076 16.279C223.225 16.4377 223.428 16.517 223.685 16.517C223.946 16.517 224.151 16.4377 224.301 16.279C224.455 16.1157 224.532 15.8893 224.532 15.6V13.15H225.162V15.6C225.162 16.0527 225.026 16.412 224.756 16.678C224.485 16.9393 224.128 17.07 223.685 17.07ZM226.566 17V13.15H227.182V13.885H227.329L227.126 14.34C227.126 13.9247 227.215 13.612 227.392 13.402C227.574 13.1873 227.842 13.08 228.197 13.08C228.603 13.08 228.925 13.2083 229.163 13.465C229.406 13.717 229.527 14.06 229.527 14.494V14.725H228.897V14.55C228.897 14.2467 228.822 14.0157 228.673 13.857C228.528 13.6937 228.321 13.612 228.05 13.612C227.784 13.612 227.574 13.6937 227.42 13.857C227.271 14.0203 227.196 14.2513 227.196 14.55V17H226.566ZM230.581 17V16.426H231.946V13.724H230.756V13.15H232.576V16.426H233.871V17H230.581ZM232.191 12.457C232.037 12.457 231.916 12.4173 231.827 12.338C231.739 12.2587 231.694 12.1513 231.694 12.016C231.694 11.876 231.739 11.7663 231.827 11.687C231.916 11.603 232.037 11.561 232.191 11.561C232.345 11.561 232.467 11.603 232.555 11.687C232.644 11.7663 232.688 11.876 232.688 12.016C232.688 12.1513 232.644 12.2587 232.555 12.338C232.467 12.4173 232.345 12.457 232.191 12.457ZM236.704 17C236.372 17 236.113 16.9113 235.927 16.734C235.745 16.5567 235.654 16.307 235.654 15.985V13.724H234.569V13.15H235.654V12.065H236.284V13.15H237.824V13.724H236.284V15.985C236.284 16.279 236.424 16.426 236.704 16.426H237.754V17H236.704ZM239.627 18.26L240.194 16.762L238.766 13.15H239.466L240.362 15.53C240.395 15.6093 240.425 15.705 240.453 15.817C240.481 15.9243 240.504 16.0153 240.523 16.09C240.542 16.0153 240.565 15.9243 240.593 15.817C240.621 15.705 240.649 15.6093 240.677 15.53L241.517 13.15H242.196L240.299 18.26H239.627ZM248.567 16.335V14.97H247.23V14.41H248.567V13.045H249.183V14.41H250.52V14.97H249.183V16.335H248.567ZM255.975 17V11.89H256.605V16.426H258.915V17H255.975ZM261.467 17.056C261.159 17.056 260.893 16.9977 260.669 16.881C260.445 16.7643 260.27 16.5963 260.144 16.377C260.023 16.153 259.962 15.8893 259.962 15.586V14.564C259.962 14.256 260.023 13.9923 260.144 13.773C260.27 13.5537 260.445 13.3857 260.669 13.269C260.893 13.1523 261.159 13.094 261.467 13.094C261.775 13.094 262.041 13.1523 262.265 13.269C262.489 13.3857 262.662 13.5537 262.783 13.773C262.909 13.9923 262.972 14.2537 262.972 14.557V15.586C262.972 15.8893 262.909 16.153 262.783 16.377C262.662 16.5963 262.489 16.7643 262.265 16.881C262.041 16.9977 261.775 17.056 261.467 17.056ZM261.467 16.496C261.743 16.496 261.957 16.419 262.111 16.265C262.265 16.111 262.342 15.8847 262.342 15.586V14.564C262.342 14.2653 262.265 14.039 262.111 13.885C261.957 13.731 261.743 13.654 261.467 13.654C261.197 13.654 260.982 13.731 260.823 13.885C260.669 14.039 260.592 14.2653 260.592 14.564V15.586C260.592 15.8847 260.669 16.111 260.823 16.265C260.982 16.419 261.197 16.496 261.467 16.496ZM264.691 18.26V17.686H265.916C266.112 17.686 266.255 17.6417 266.343 17.553C266.437 17.4643 266.483 17.3267 266.483 17.14V16.65L266.497 15.95H266.371L266.49 15.845C266.49 16.125 266.397 16.3467 266.21 16.51C266.024 16.6733 265.774 16.755 265.461 16.755C265.065 16.755 264.752 16.6267 264.523 16.37C264.295 16.1087 264.18 15.7587 264.18 15.32V14.508C264.18 14.0693 264.295 13.7217 264.523 13.465C264.752 13.2083 265.065 13.08 265.461 13.08C265.774 13.08 266.024 13.1617 266.21 13.325C266.397 13.4883 266.49 13.71 266.49 13.99L266.371 13.885H266.49V13.15H267.113V17.14C267.113 17.4853 267.006 17.7583 266.791 17.959C266.581 18.1597 266.287 18.26 265.909 18.26H264.691ZM265.65 16.209C265.912 16.209 266.117 16.1273 266.266 15.964C266.416 15.8007 266.49 15.5743 266.49 15.285V14.55C266.49 14.2607 266.416 14.0343 266.266 13.871C266.117 13.7077 265.912 13.626 265.65 13.626C265.384 13.626 265.177 13.7053 265.027 13.864C264.883 14.0227 264.81 14.2513 264.81 14.55V15.285C264.81 15.5837 264.883 15.8123 265.027 15.971C265.177 16.1297 265.384 16.209 265.65 16.209ZM268.889 18.26V17.686H270.114C270.31 17.686 270.452 17.6417 270.541 17.553C270.634 17.4643 270.681 17.3267 270.681 17.14V16.65L270.695 15.95H270.569L270.688 15.845C270.688 16.125 270.594 16.3467 270.408 16.51C270.221 16.6733 269.971 16.755 269.659 16.755C269.262 16.755 268.949 16.6267 268.721 16.37C268.492 16.1087 268.378 15.7587 268.378 15.32V14.508C268.378 14.0693 268.492 13.7217 268.721 13.465C268.949 13.2083 269.262 13.08 269.659 13.08C269.971 13.08 270.221 13.1617 270.408 13.325C270.594 13.4883 270.688 13.71 270.688 13.99L270.569 13.885H270.688V13.15H271.311V17.14C271.311 17.4853 271.203 17.7583 270.989 17.959C270.779 18.1597 270.485 18.26 270.107 18.26H268.889ZM269.848 16.209C270.109 16.209 270.314 16.1273 270.464 15.964C270.613 15.8007 270.688 15.5743 270.688 15.285V14.55C270.688 14.2607 270.613 14.0343 270.464 13.871C270.314 13.7077 270.109 13.626 269.848 13.626C269.582 13.626 269.374 13.7053 269.225 13.864C269.08 14.0227 269.008 14.2513 269.008 14.55V15.285C269.008 15.5837 269.08 15.8123 269.225 15.971C269.374 16.1297 269.582 16.209 269.848 16.209ZM272.554 17V16.426H273.919V13.724H272.729V13.15H274.549V16.426H275.844V17H272.554ZM274.164 12.457C274.01 12.457 273.889 12.4173 273.8 12.338C273.711 12.2587 273.667 12.1513 273.667 12.016C273.667 11.876 273.711 11.7663 273.8 11.687C273.889 11.603 274.01 11.561 274.164 11.561C274.318 11.561 274.439 11.603 274.528 11.687C274.617 11.7663 274.661 11.876 274.661 12.016C274.661 12.1513 274.617 12.2587 274.528 12.338C274.439 12.4173 274.318 12.457 274.164 12.457ZM276.8 17V13.15H277.43V13.885H277.563L277.43 14.032C277.43 13.7287 277.521 13.4953 277.703 13.332C277.885 13.164 278.137 13.08 278.459 13.08C278.847 13.08 279.155 13.199 279.383 13.437C279.612 13.675 279.726 13.9993 279.726 14.41V17H279.096V14.48C279.096 14.2047 279.022 13.9947 278.872 13.85C278.728 13.7007 278.529 13.626 278.277 13.626C278.016 13.626 277.808 13.7053 277.654 13.864C277.505 14.0227 277.43 14.2513 277.43 14.55V17H276.8ZM281.481 18.26V17.686H282.706C282.902 17.686 283.044 17.6417 283.133 17.553C283.226 17.4643 283.273 17.3267 283.273 17.14V16.65L283.287 15.95H283.161L283.28 15.845C283.28 16.125 283.186 16.3467 283 16.51C282.813 16.6733 282.563 16.755 282.251 16.755C281.854 16.755 281.541 16.6267 281.313 16.37C281.084 16.1087 280.97 15.7587 280.97 15.32V14.508C280.97 14.0693 281.084 13.7217 281.313 13.465C281.541 13.2083 281.854 13.08 282.251 13.08C282.563 13.08 282.813 13.1617 283 13.325C283.186 13.4883 283.28 13.71 283.28 13.99L283.161 13.885H283.28V13.15H283.903V17.14C283.903 17.4853 283.795 17.7583 283.581 17.959C283.371 18.1597 283.077 18.26 282.699 18.26H281.481ZM282.44 16.209C282.701 16.209 282.906 16.1273 283.056 15.964C283.205 15.8007 283.28 15.5743 283.28 15.285V14.55C283.28 14.2607 283.205 14.0343 283.056 13.871C282.906 13.7077 282.701 13.626 282.44 13.626C282.174 13.626 281.966 13.7053 281.817 13.864C281.672 14.0227 281.6 14.2513 281.6 14.55V15.285C281.6 15.5837 281.672 15.8123 281.817 15.971C281.966 16.1297 282.174 16.209 282.44 16.209Z" fill="black"/>
<path d="M213.7 152V146.89H216.64V147.464H214.323V149.046H216.395V149.613H214.323V151.426H216.64V152H213.7ZM217.841 152V148.15H218.471V148.885H218.604L218.471 149.032C218.471 148.729 218.562 148.495 218.744 148.332C218.926 148.164 219.178 148.08 219.5 148.08C219.888 148.08 220.196 148.199 220.424 148.437C220.653 148.675 220.767 148.999 220.767 149.41V152H220.137V149.48C220.137 149.205 220.063 148.995 219.913 148.85C219.769 148.701 219.57 148.626 219.318 148.626C219.057 148.626 218.849 148.705 218.695 148.864C218.546 149.023 218.471 149.251 218.471 149.55V152H217.841ZM223.271 152.07C222.888 152.07 222.578 151.942 222.34 151.685C222.106 151.428 221.99 151.081 221.99 150.642V149.515C221.99 149.072 222.106 148.722 222.34 148.465C222.573 148.208 222.883 148.08 223.271 148.08C223.588 148.08 223.842 148.166 224.034 148.339C224.225 148.512 224.321 148.743 224.321 149.032L224.195 148.885H224.335L224.321 148.01V146.89H224.951V152H224.321V151.265H224.195L224.321 151.118C224.321 151.412 224.225 151.645 224.034 151.818C223.842 151.986 223.588 152.07 223.271 152.07ZM223.481 151.524C223.742 151.524 223.947 151.442 224.097 151.279C224.246 151.116 224.321 150.889 224.321 150.6V149.55C224.321 149.261 224.246 149.034 224.097 148.871C223.947 148.708 223.742 148.626 223.481 148.626C223.215 148.626 223.005 148.705 222.851 148.864C222.697 149.023 222.62 149.251 222.62 149.55V150.6C222.62 150.899 222.697 151.127 222.851 151.286C223.005 151.445 223.215 151.524 223.481 151.524ZM226.572 149.97V149.41H228.812V149.97H226.572ZM231.889 152.07C231.413 152.07 231.049 151.939 230.797 151.678C230.545 151.412 230.419 151.053 230.419 150.6V146.89H231.049V150.6C231.049 150.88 231.117 151.102 231.252 151.265C231.392 151.428 231.604 151.51 231.889 151.51C232.169 151.51 232.379 151.428 232.519 151.265C232.659 151.102 232.729 150.88 232.729 150.6V146.89H233.359V150.6C233.359 151.057 233.233 151.417 232.981 151.678C232.734 151.939 232.37 152.07 231.889 152.07ZM235.967 152.056C235.706 152.056 235.477 152.016 235.281 151.937C235.09 151.853 234.936 151.736 234.819 151.587C234.707 151.438 234.64 151.26 234.616 151.055H235.246C235.274 151.19 235.349 151.298 235.47 151.377C235.596 151.456 235.762 151.496 235.967 151.496H236.261C236.509 151.496 236.693 151.447 236.814 151.349C236.936 151.246 236.996 151.111 236.996 150.943C236.996 150.78 236.94 150.651 236.828 150.558C236.721 150.46 236.56 150.395 236.345 150.362L235.827 150.278C235.449 150.213 235.167 150.096 234.98 149.928C234.798 149.755 234.707 149.506 234.707 149.179C234.707 148.834 234.817 148.568 235.036 148.381C235.256 148.19 235.585 148.094 236.023 148.094H236.289C236.658 148.094 236.954 148.18 237.178 148.353C237.402 148.526 237.538 148.759 237.584 149.053H236.954C236.926 148.932 236.856 148.836 236.744 148.766C236.632 148.691 236.481 148.654 236.289 148.654H236.023C235.785 148.654 235.61 148.698 235.498 148.787C235.391 148.876 235.337 149.009 235.337 149.186C235.337 149.345 235.384 149.461 235.477 149.536C235.571 149.611 235.718 149.664 235.918 149.697L236.436 149.781C236.852 149.846 237.153 149.968 237.339 150.145C237.531 150.322 237.626 150.579 237.626 150.915C237.626 151.27 237.512 151.55 237.283 151.755C237.059 151.956 236.719 152.056 236.261 152.056H235.967ZM240.284 152.07C239.98 152.07 239.714 152.009 239.486 151.888C239.262 151.767 239.087 151.596 238.961 151.377C238.839 151.153 238.779 150.894 238.779 150.6V149.55C238.779 149.251 238.839 148.992 238.961 148.773C239.087 148.554 239.262 148.383 239.486 148.262C239.714 148.141 239.98 148.08 240.284 148.08C240.587 148.08 240.851 148.141 241.075 148.262C241.303 148.383 241.478 148.554 241.6 148.773C241.726 148.992 241.789 149.251 241.789 149.55V150.229H239.395V150.6C239.395 150.903 239.472 151.137 239.626 151.3C239.78 151.459 239.999 151.538 240.284 151.538C240.526 151.538 240.722 151.496 240.872 151.412C241.021 151.323 241.112 151.193 241.145 151.02H241.775C241.733 151.342 241.574 151.599 241.299 151.79C241.028 151.977 240.69 152.07 240.284 152.07ZM241.173 149.809V149.55C241.173 149.247 241.096 149.013 240.942 148.85C240.792 148.687 240.573 148.605 240.284 148.605C239.999 148.605 239.78 148.687 239.626 148.85C239.472 149.013 239.395 149.247 239.395 149.55V149.753H241.222L241.173 149.809ZM243.158 152V148.15H243.774V148.885H243.921L243.718 149.34C243.718 148.925 243.807 148.612 243.984 148.402C244.166 148.187 244.434 148.08 244.789 148.08C245.195 148.08 245.517 148.208 245.755 148.465C245.998 148.717 246.119 149.06 246.119 149.494V149.725H245.489V149.55C245.489 149.247 245.414 149.016 245.265 148.857C245.12 148.694 244.913 148.612 244.642 148.612C244.376 148.612 244.166 148.694 244.012 148.857C243.863 149.02 243.788 149.251 243.788 149.55V152H243.158ZM251.426 152V146.89H252.875C253.342 146.89 253.706 147.007 253.967 147.24C254.233 147.473 254.366 147.798 254.366 148.213C254.366 148.446 254.317 148.649 254.219 148.822C254.121 148.995 253.981 149.128 253.799 149.221C253.622 149.314 253.407 149.359 253.155 149.354V149.249C253.426 149.244 253.659 149.296 253.855 149.403C254.056 149.51 254.21 149.664 254.317 149.865C254.429 150.066 254.485 150.304 254.485 150.579C254.485 150.868 254.425 151.12 254.303 151.335C254.182 151.55 254.009 151.715 253.785 151.832C253.561 151.944 253.293 152 252.98 152H251.426ZM252.042 151.433H252.91C253.204 151.433 253.435 151.356 253.603 151.202C253.776 151.043 253.862 150.829 253.862 150.558C253.862 150.278 253.776 150.052 253.603 149.879C253.435 149.702 253.204 149.613 252.91 149.613H252.042V151.433ZM252.042 149.067H252.868C253.139 149.067 253.351 148.995 253.505 148.85C253.664 148.705 253.743 148.509 253.743 148.262C253.743 148.015 253.666 147.819 253.512 147.674C253.358 147.529 253.146 147.457 252.875 147.457H252.042V149.067ZM255.568 152V151.426H256.933V148.724H255.743V148.15H257.563V151.426H258.858V152H255.568ZM257.178 147.457C257.024 147.457 256.902 147.417 256.814 147.338C256.725 147.259 256.681 147.151 256.681 147.016C256.681 146.876 256.725 146.766 256.814 146.687C256.902 146.603 257.024 146.561 257.178 146.561C257.332 146.561 257.453 146.603 257.542 146.687C257.63 146.766 257.675 146.876 257.675 147.016C257.675 147.151 257.63 147.259 257.542 147.338C257.453 147.417 257.332 147.457 257.178 147.457ZM261.795 152C261.571 152 261.375 151.956 261.207 151.867C261.039 151.778 260.908 151.652 260.815 151.489C260.722 151.326 260.675 151.134 260.675 150.915V147.464H259.38V146.89H261.305V150.915C261.305 151.074 261.349 151.2 261.438 151.293C261.527 151.382 261.646 151.426 261.795 151.426H263.02V152H261.795ZM265.992 152C265.768 152 265.572 151.956 265.404 151.867C265.236 151.778 265.106 151.652 265.012 151.489C264.919 151.326 264.872 151.134 264.872 150.915V147.464H263.577V146.89H265.502V150.915C265.502 151.074 265.547 151.2 265.635 151.293C265.724 151.382 265.843 151.426 265.992 151.426H267.217V152H265.992ZM268.159 152V151.426H269.524V148.724H268.334V148.15H270.154V151.426H271.449V152H268.159ZM269.769 147.457C269.615 147.457 269.494 147.417 269.405 147.338C269.317 147.259 269.272 147.151 269.272 147.016C269.272 146.876 269.317 146.766 269.405 146.687C269.494 146.603 269.615 146.561 269.769 146.561C269.923 146.561 270.045 146.603 270.133 146.687C270.222 146.766 270.266 146.876 270.266 147.016C270.266 147.151 270.222 147.259 270.133 147.338C270.045 147.417 269.923 147.457 269.769 147.457ZM272.406 152V148.15H273.036V148.885H273.169L273.036 149.032C273.036 148.729 273.127 148.495 273.309 148.332C273.491 148.164 273.743 148.08 274.065 148.08C274.452 148.08 274.76 148.199 274.989 148.437C275.217 148.675 275.332 148.999 275.332 149.41V152H274.702V149.48C274.702 149.205 274.627 148.995 274.478 148.85C274.333 148.701 274.135 148.626 273.883 148.626C273.621 148.626 273.414 148.705 273.26 148.864C273.11 149.023 273.036 149.251 273.036 149.55V152H272.406ZM277.086 153.26V152.686H278.311C278.507 152.686 278.649 152.642 278.738 152.553C278.831 152.464 278.878 152.327 278.878 152.14V151.65L278.892 150.95H278.766L278.885 150.845C278.885 151.125 278.792 151.347 278.605 151.51C278.418 151.673 278.169 151.755 277.856 151.755C277.459 151.755 277.147 151.627 276.918 151.37C276.689 151.109 276.575 150.759 276.575 150.32V149.508C276.575 149.069 276.689 148.722 276.918 148.465C277.147 148.208 277.459 148.08 277.856 148.08C278.169 148.08 278.418 148.162 278.605 148.325C278.792 148.488 278.885 148.71 278.885 148.99L278.766 148.885H278.885V148.15H279.508V152.14C279.508 152.485 279.401 152.758 279.186 152.959C278.976 153.16 278.682 153.26 278.304 153.26H277.086ZM278.045 151.209C278.306 151.209 278.512 151.127 278.661 150.964C278.81 150.801 278.885 150.574 278.885 150.285V149.55C278.885 149.261 278.81 149.034 278.661 148.871C278.512 148.708 278.306 148.626 278.045 148.626C277.779 148.626 277.571 148.705 277.422 148.864C277.277 149.023 277.205 149.251 277.205 149.55V150.285C277.205 150.584 277.277 150.812 277.422 150.971C277.571 151.13 277.779 151.209 278.045 151.209Z" fill="black"/>
<rect x="82" y="43" width="64" height="25" rx="5" fill="#D9D9D9" fill-opacity="0.66"/>
<rect x="18" y="73" width="93" height="56" rx="5" fill="#D9D9D9" fill-opacity="0.24"/>
<path d="M169.007 81.0782L164.045 78.6136L163.955 84.3864L168.992 82.0781L169.007 81.0782ZM196 82L191.046 79.0355L190.956 84.8083L196 82ZM167 81.5469L166.992 82.0468L168.992 82.0781L169 81.5781L169.008 81.0782L167.008 81.0469L167 81.5469ZM171 81.6094L170.992 82.1093L172.992 82.1406L173 81.6406L173.008 81.1407L171.008 81.1094L171 81.6094ZM175 81.6719L174.992 82.1718L176.992 82.2031L177 81.7031L177.008 81.2032L175.008 81.1719L175 81.6719ZM179 81.7344L178.992 82.2343L180.992 82.2656L181 81.7656L181.008 81.2657L179.008 81.2344L179 81.7344ZM183 81.7969L182.992 82.2968L184.992 82.3281L185 81.8281L185.008 81.3282L183.008 81.2969L183 81.7969ZM187 81.8594L186.992 82.3593L188.992 82.3906L189 81.8906L189.008 81.3907L187.008 81.3594L187 81.8594ZM191 81.9219L190.992 82.4218L192.992 82.4531L193 81.9531L193.008 81.4532L191.008 81.4219L191 81.9219Z" fill="#111111"/>
<path d="M302.007 84.0782L297.045 81.6136L296.955 87.3864L301.992 85.0781L302.007 84.0782ZM329 85L324.046 82.0355L323.956 87.8083L329 85ZM300 84.5469L299.992 85.0468L301.992 85.0781L302 84.5781L302.008 84.0782L300.008 84.0469L300 84.5469ZM304 84.6094L303.992 85.1093L305.992 85.1406L306 84.6406L306.008 84.1407L304.008 84.1094L304 84.6094ZM308 84.6719L307.992 85.1718L309.992 85.2031L310 84.7031L310.008 84.2032L308.008 84.1719L308 84.6719ZM312 84.7344L311.992 85.2343L313.992 85.2656L314 84.7656L314.008 84.2657L312.008 84.2344L312 84.7344ZM316 84.7969L315.992 85.2968L317.992 85.3281L318 84.8281L318.008 84.3282L316.008 84.2969L316 84.7969ZM320 84.8594L319.992 85.3593L321.992 85.3906L322 84.8906L322.008 84.3907L320.008 84.3594L320 84.8594ZM324 84.9219L323.992 85.4218L325.992 85.4531L326 84.9531L326.008 84.4532L324.008 84.4219L324 84.9219Z" fill="#111111"/>
<path d="M297 76L301.954 78.9645L302.044 73.1917L297 76ZM323.993 76.9218L328.955 79.3864L329.045 73.6136L324.008 75.9219L323.993 76.9218ZM300 76.0469L299.992 76.5468L301.992 76.5781L302 76.0781L302.008 75.5782L300.008 75.5469L300 76.0469ZM304 76.1094L303.992 76.6093L305.992 76.6406L306 76.1406L306.008 75.6407L304.008 75.6094L304 76.1094ZM308 76.1719L307.992 76.6718L309.992 76.7031L310 76.2031L310.008 75.7032L308.008 75.6719L308 76.1719ZM312 76.2344L311.992 76.7343L313.992 76.7656L314 76.2656L314.008 75.7657L312.008 75.7344L312 76.2344ZM316 76.2969L315.992 76.7968L317.992 76.8281L318 76.3281L318.008 75.8282L316.008 75.7969L316 76.2969ZM320 76.3594L319.992 76.8593L321.992 76.8906L322 76.3906L322.008 75.8907L320.008 75.8594L320 76.3594ZM324 76.4219L323.992 76.9218L325.992 76.9531L326 76.4531L326.008 75.9532L324.008 75.9219L324 76.4219Z" fill="#111111"/>
<path d="M354 197.004L356.887 192.004H351.113L354 197.004ZM354.5 170L356.887 165H351.113L353.5 170H354.5ZM354 194.004H354.5V192.003H354H353.5V194.004H354ZM354 190.003H354.5V188.003H354H353.5V190.003H354ZM354 186.003H354.5V184.002H354H353.5V186.003H354ZM354 182.002H354.5V180.002H354H353.5V182.002H354ZM354 178.002H354.5V176.001H354H353.5V178.002H354ZM354 174.001H354.5V172.001H354H353.5V174.001H354ZM354 170.001H354.5V168H354H353.5V170.001H354Z" fill="#111111"/>
<rect x="196.5" y="31.5" width="101" height="101" rx="9.5" stroke="#F7F7F7"/>
<rect x="199.5" y="34.5" width="95" height="95" rx="7.5" stroke="#F7F7F7"/>
<rect x="334.5" y="5.5" width="39" height="37" rx="5.5" stroke="#F7F7F7"/>
<rect x="334.5" y="47.5" width="39" height="37" rx="5.5" stroke="#F7F7F7"/>
<rect x="334.5" y="89.5" width="39" height="37" rx="5.5" stroke="#F7F7F7"/>
<rect x="334.5" y="203.5" width="39" height="37" rx="5.5" stroke="#F7F7F7"/>
<rect x="290.5" y="203.5" width="39" height="37" rx="5.5" stroke="#F7F7F7"/>
<rect x="246.5" y="203.5" width="39" height="37" rx="5.5" stroke="#F7F7F7"/>
<rect x="202.5" y="203.5" width="39" height="37" rx="5.5" stroke="#F7F7F7"/>
<g clip-path="url(#clip0_1058_142)">
<path d="M345.494 70.6142L351 67.526L351.094 67.2577L351 67.1083H350.733L349.812 67.0523L346.664 66.9672L343.935 66.854L341.291 66.7117L340.625 66.5705L340 65.748L340.064 65.3373L340.624 64.9628L341.424 65.0328L343.198 65.153L345.855 65.3373L347.783 65.4505L350.64 65.748H351.094L351.158 65.5648L351.002 65.4505L350.881 65.3373L348.13 63.4753L345.153 61.506L343.594 60.372L342.75 59.7992L342.325 59.2602L342.141 58.0842L342.906 57.2418L343.934 57.3118L344.196 57.383L345.238 58.1833L347.464 59.9053L350.37 62.0438L350.796 62.3985L350.965 62.2783L350.988 62.1932L350.796 61.8735L349.215 59.0198L347.528 56.1148L346.777 54.9108L346.579 54.1887C346.503 53.9113 346.463 53.6256 346.457 53.3382L347.33 52.1563L347.812 52L348.974 52.1563L349.464 52.581L350.187 54.2307L351.356 56.8312L353.17 60.3662L353.702 61.4138L353.986 62.3845L354.092 62.682H354.277V62.5117L354.426 60.5213L354.702 58.0772L354.971 54.933L355.064 54.0463L355.503 52.9847L356.374 52.4107L357.055 52.7373L357.615 53.5365L357.537 54.0545L357.204 56.214L356.551 59.6008L356.127 61.8665H356.374L356.658 61.5842L357.807 60.0605L359.734 57.6525L360.586 56.6958L361.578 55.6412L362.216 55.1383H363.421L364.307 56.4555L363.911 57.8158L362.669 59.3873L361.642 60.7197L360.167 62.703L359.245 64.2897L359.33 64.418L359.55 64.3947L362.882 63.6877L364.682 63.361L366.83 62.9935L367.802 63.4462L367.908 63.907L367.525 64.8485L365.228 65.4155L362.534 65.9545L358.522 66.903L358.473 66.938L358.53 67.0092L360.337 67.1795L361.11 67.2215H363.002L366.525 67.484L367.447 68.093L368 68.8373L367.908 69.4032L366.49 70.1265L364.577 69.6727L360.11 68.611L358.579 68.2272H358.367V68.3555L359.642 69.6015L361.982 71.7132L364.909 74.4315L365.058 75.1058L364.682 75.6367L364.285 75.5795L361.713 73.6463L360.72 72.7748L358.473 70.8848H358.324V71.0832L358.842 71.8403L361.578 75.9482L361.72 77.2082L361.521 77.62L360.812 77.8685L360.033 77.7262L358.43 75.4803L356.779 72.9522L355.445 70.6853L355.282 70.7787L354.496 79.2417L354.127 79.6733L353.277 80L352.568 79.4622L352.193 78.5907L352.568 76.8687L353.022 74.624L353.39 72.839L353.723 70.6223L353.922 69.885L353.908 69.836L353.744 69.857L352.071 72.1518L349.528 75.5877L347.514 77.7402L347.031 77.9315L346.195 77.4998L346.273 76.7275L346.741 76.0403L349.527 72.4983L351.207 70.3027L352.292 69.0357L352.285 68.8513H352.221L344.821 73.6533L343.502 73.8237L342.934 73.2917L343.005 72.4213L343.275 72.1378L345.501 70.6072L345.494 70.6142Z" fill="#D97757"/>
</g>
<path d="M364.052 106.641C362.113 105.816 360.351 104.627 358.86 103.14C356.783 101.059 355.301 98.4594 354.569 95.6122C354.537 95.4857 354.463 95.3736 354.36 95.2935C354.257 95.2134 354.131 95.1699 354 95.1699C353.87 95.1699 353.743 95.2134 353.64 95.2935C353.537 95.3736 353.464 95.4857 353.431 95.6122C352.697 98.4591 351.215 101.058 349.139 103.14C347.648 104.627 345.886 105.815 343.948 106.641C343.189 106.967 342.41 107.23 341.612 107.432C341.485 107.463 341.372 107.536 341.291 107.639C341.21 107.742 341.166 107.869 341.166 108C341.166 108.131 341.21 108.259 341.291 108.362C341.372 108.465 341.485 108.538 341.612 108.569C342.41 108.77 343.187 109.032 343.948 109.359C345.886 110.184 347.648 111.373 349.139 112.86C351.217 114.941 352.699 117.541 353.431 120.389C353.463 120.516 353.536 120.629 353.639 120.71C353.742 120.791 353.869 120.835 354 120.835C354.131 120.835 354.258 120.791 354.362 120.71C354.465 120.629 354.538 120.516 354.569 120.389C354.77 119.59 355.032 118.813 355.359 118.052C356.184 116.114 357.372 114.351 358.86 112.86C360.941 110.783 363.541 109.302 366.388 108.569C366.515 108.537 366.627 108.464 366.707 108.361C366.787 108.258 366.831 108.131 366.831 108C366.831 107.87 366.787 107.743 366.707 107.64C366.627 107.537 366.515 107.464 366.388 107.432C365.59 107.231 364.808 106.966 364.052 106.641Z" fill="#3186FF"/>
<path d="M364.052 106.641C362.113 105.816 360.351 104.627 358.86 103.14C356.783 101.059 355.301 98.4594 354.569 95.6122C354.537 95.4857 354.463 95.3736 354.36 95.2935C354.257 95.2134 354.131 95.1699 354 95.1699C353.87 95.1699 353.743 95.2134 353.64 95.2935C353.537 95.3736 353.464 95.4857 353.431 95.6122C352.697 98.4591 351.215 101.058 349.139 103.14C347.648 104.627 345.886 105.815 343.948 106.641C343.189 106.967 342.41 107.23 341.612 107.432C341.485 107.463 341.372 107.536 341.291 107.639C341.21 107.742 341.166 107.869 341.166 108C341.166 108.131 341.21 108.259 341.291 108.362C341.372 108.465 341.485 108.538 341.612 108.569C342.41 108.77 343.187 109.032 343.948 109.359C345.886 110.184 347.648 111.373 349.139 112.86C351.217 114.941 352.699 117.541 353.431 120.389C353.463 120.516 353.536 120.629 353.639 120.71C353.742 120.791 353.869 120.835 354 120.835C354.131 120.835 354.258 120.791 354.362 120.71C354.465 120.629 354.538 120.516 354.569 120.389C354.77 119.59 355.032 118.813 355.359 118.052C356.184 116.114 357.372 114.351 358.86 112.86C360.941 110.783 363.541 109.302 366.388 108.569C366.515 108.537 366.627 108.464 366.707 108.361C366.787 108.258 366.831 108.131 366.831 108C366.831 107.87 366.787 107.743 366.707 107.64C366.627 107.537 366.515 107.464 366.388 107.432C365.59 107.231 364.808 106.966 364.052 106.641Z" fill="url(#paint0_linear_1058_142)"/>
<path d="M364.052 106.641C362.113 105.816 360.351 104.627 358.86 103.14C356.783 101.059 355.301 98.4594 354.569 95.6122C354.537 95.4857 354.463 95.3736 354.36 95.2935C354.257 95.2134 354.131 95.1699 354 95.1699C353.87 95.1699 353.743 95.2134 353.64 95.2935C353.537 95.3736 353.464 95.4857 353.431 95.6122C352.697 98.4591 351.215 101.058 349.139 103.14C347.648 104.627 345.886 105.815 343.948 106.641C343.189 106.967 342.41 107.23 341.612 107.432C341.485 107.463 341.372 107.536 341.291 107.639C341.21 107.742 341.166 107.869 341.166 108C341.166 108.131 341.21 108.259 341.291 108.362C341.372 108.465 341.485 108.538 341.612 108.569C342.41 108.77 343.187 109.032 343.948 109.359C345.886 110.184 347.648 111.373 349.139 112.86C351.217 114.941 352.699 117.541 353.431 120.389C353.463 120.516 353.536 120.629 353.639 120.71C353.742 120.791 353.869 120.835 354 120.835C354.131 120.835 354.258 120.791 354.362 120.71C354.465 120.629 354.538 120.516 354.569 120.389C354.77 119.59 355.032 118.813 355.359 118.052C356.184 116.114 357.372 114.351 358.86 112.86C360.941 110.783 363.541 109.302 366.388 108.569C366.515 108.537 366.627 108.464 366.707 108.361C366.787 108.258 366.831 108.131 366.831 108C366.831 107.87 366.787 107.743 366.707 107.64C366.627 107.537 366.515 107.464 366.388 107.432C365.59 107.231 364.808 106.966 364.052 106.641Z" fill="url(#paint1_linear_1058_142)"/>
<path d="M364.052 106.641C362.113 105.816 360.351 104.627 358.86 103.14C356.783 101.059 355.301 98.4594 354.569 95.6122C354.537 95.4857 354.463 95.3736 354.36 95.2935C354.257 95.2134 354.131 95.1699 354 95.1699C353.87 95.1699 353.743 95.2134 353.64 95.2935C353.537 95.3736 353.464 95.4857 353.431 95.6122C352.697 98.4591 351.215 101.058 349.139 103.14C347.648 104.627 345.886 105.815 343.948 106.641C343.189 106.967 342.41 107.23 341.612 107.432C341.485 107.463 341.372 107.536 341.291 107.639C341.21 107.742 341.166 107.869 341.166 108C341.166 108.131 341.21 108.259 341.291 108.362C341.372 108.465 341.485 108.538 341.612 108.569C342.41 108.77 343.187 109.032 343.948 109.359C345.886 110.184 347.648 111.373 349.139 112.86C351.217 114.941 352.699 117.541 353.431 120.389C353.463 120.516 353.536 120.629 353.639 120.71C353.742 120.791 353.869 120.835 354 120.835C354.131 120.835 354.258 120.791 354.362 120.71C354.465 120.629 354.538 120.516 354.569 120.389C354.77 119.59 355.032 118.813 355.359 118.052C356.184 116.114 357.372 114.351 358.86 112.86C360.941 110.783 363.541 109.302 366.388 108.569C366.515 108.537 366.627 108.464 366.707 108.361C366.787 108.258 366.831 108.131 366.831 108C366.831 107.87 366.787 107.743 366.707 107.64C366.627 107.537 366.515 107.464 366.388 107.432C365.59 107.231 364.808 106.966 364.052 106.641Z" fill="url(#paint2_linear_1058_142)"/>
<path d="M360 145.75H348C347.59 145.75 347.25 145.41 347.25 145C347.25 144.59 347.59 144.25 348 144.25H360C360.41 144.25 360.75 144.59 360.75 145C360.75 145.41 360.41 145.75 360 145.75Z" fill="#9C9A9A"/>
<path d="M354 151.75C353.59 151.75 353.25 151.41 353.25 151V139C353.25 138.59 353.59 138.25 354 138.25C354.41 138.25 354.75 138.59 354.75 139V151C354.75 151.41 354.41 151.75 354 151.75Z" fill="#9C9A9A"/>
<rect width="59" height="11" transform="translate(207 191)" fill="#FEFEFD"/>
<path d="M213.3 198.5L214.44 194.12H215.166L216.3 198.5H215.754L215.466 197.336H214.14L213.852 198.5H213.3ZM214.248 196.88H215.352L215.016 195.53C214.952 195.274 214.902 195.06 214.866 194.888C214.83 194.716 214.808 194.604 214.8 194.552C214.792 194.604 214.77 194.716 214.734 194.888C214.698 195.06 214.648 195.272 214.584 195.524L214.248 196.88ZM218.392 198.56C218.012 198.56 217.708 198.448 217.48 198.224C217.252 197.996 217.138 197.688 217.138 197.3V195.2H217.678V197.3C217.678 197.548 217.742 197.742 217.87 197.882C217.998 198.018 218.172 198.086 218.392 198.086C218.616 198.086 218.792 198.018 218.92 197.882C219.052 197.742 219.118 197.548 219.118 197.3V195.2H219.658V197.3C219.658 197.688 219.542 197.996 219.31 198.224C219.078 198.448 218.772 198.56 218.392 198.56ZM222.355 198.5C222.071 198.5 221.849 198.424 221.689 198.272C221.533 198.12 221.455 197.906 221.455 197.63V195.692H220.525V195.2H221.455V194.27H221.995V195.2H223.315V195.692H221.995V197.63C221.995 197.882 222.115 198.008 222.355 198.008H223.255V198.5H222.355ZM225.593 198.548C225.329 198.548 225.101 198.498 224.909 198.398C224.717 198.298 224.567 198.154 224.459 197.966C224.355 197.774 224.303 197.548 224.303 197.288V196.412C224.303 196.148 224.355 195.922 224.459 195.734C224.567 195.546 224.717 195.402 224.909 195.302C225.101 195.202 225.329 195.152 225.593 195.152C225.857 195.152 226.085 195.202 226.277 195.302C226.469 195.402 226.617 195.546 226.721 195.734C226.829 195.922 226.883 196.146 226.883 196.406V197.288C226.883 197.548 226.829 197.774 226.721 197.966C226.617 198.154 226.469 198.298 226.277 198.398C226.085 198.498 225.857 198.548 225.593 198.548ZM225.593 198.068C225.829 198.068 226.013 198.002 226.145 197.87C226.277 197.738 226.343 197.544 226.343 197.288V196.412C226.343 196.156 226.277 195.962 226.145 195.83C226.013 195.698 225.829 195.632 225.593 195.632C225.361 195.632 225.177 195.698 225.041 195.83C224.909 195.962 224.843 196.156 224.843 196.412V197.288C224.843 197.544 224.909 197.738 225.041 197.87C225.177 198.002 225.361 198.068 225.593 198.068ZM231.558 198.5V194.114H234.138V194.606H232.086V196.064H233.982V196.556H232.098V198.5H231.558ZM236.098 198.56C235.75 198.56 235.476 198.472 235.276 198.296C235.076 198.116 234.976 197.874 234.976 197.57C234.976 197.262 235.076 197.02 235.276 196.844C235.476 196.668 235.746 196.58 236.086 196.58H237.106V196.25C237.106 196.046 237.044 195.89 236.92 195.782C236.8 195.67 236.628 195.614 236.404 195.614C236.208 195.614 236.044 195.656 235.912 195.74C235.78 195.82 235.704 195.93 235.684 196.07H235.144C235.18 195.786 235.314 195.56 235.546 195.392C235.778 195.224 236.068 195.14 236.416 195.14C236.796 195.14 237.096 195.238 237.316 195.434C237.536 195.63 237.646 195.896 237.646 196.232V198.5H237.118V197.87H237.028L237.118 197.78C237.118 198.02 237.024 198.21 236.836 198.35C236.652 198.49 236.406 198.56 236.098 198.56ZM236.23 198.134C236.486 198.134 236.696 198.07 236.86 197.942C237.024 197.814 237.106 197.65 237.106 197.45V196.982H236.098C235.918 196.982 235.776 197.032 235.672 197.132C235.568 197.232 235.516 197.368 235.516 197.54C235.516 197.724 235.578 197.87 235.702 197.978C235.83 198.082 236.006 198.134 236.23 198.134ZM240.434 198.5C240.242 198.5 240.074 198.462 239.93 198.386C239.786 198.31 239.674 198.202 239.594 198.062C239.514 197.922 239.474 197.758 239.474 197.57V194.612H238.364V194.12H240.014V197.57C240.014 197.706 240.052 197.814 240.128 197.894C240.204 197.97 240.306 198.008 240.434 198.008H241.484V198.5H240.434ZM244.031 198.5C243.839 198.5 243.671 198.462 243.527 198.386C243.383 198.31 243.271 198.202 243.191 198.062C243.111 197.922 243.071 197.758 243.071 197.57V194.612H241.961V194.12H243.611V197.57C243.611 197.706 243.649 197.814 243.725 197.894C243.801 197.97 243.903 198.008 244.031 198.008H245.081V198.5H244.031ZM247.371 198.56C247.099 198.56 246.881 198.488 246.717 198.344C246.553 198.196 246.471 197.996 246.471 197.744L246.579 197.87H246.471V198.5H245.931V194.12H246.471V195.08L246.459 195.83H246.579L246.471 195.956C246.471 195.708 246.553 195.51 246.717 195.362C246.885 195.214 247.103 195.14 247.371 195.14C247.703 195.14 247.969 195.25 248.169 195.47C248.369 195.69 248.469 195.99 248.469 196.37V197.336C248.469 197.712 248.369 198.01 248.169 198.23C247.969 198.45 247.703 198.56 247.371 198.56ZM247.191 198.092C247.419 198.092 247.599 198.024 247.731 197.888C247.863 197.752 247.929 197.556 247.929 197.3V196.4C247.929 196.144 247.863 195.948 247.731 195.812C247.599 195.676 247.419 195.608 247.191 195.608C246.971 195.608 246.795 195.678 246.663 195.818C246.535 195.958 246.471 196.152 246.471 196.4V197.3C246.471 197.548 246.535 197.742 246.663 197.882C246.795 198.022 246.971 198.092 247.191 198.092ZM250.489 198.56C250.141 198.56 249.867 198.472 249.667 198.296C249.467 198.116 249.367 197.874 249.367 197.57C249.367 197.262 249.467 197.02 249.667 196.844C249.867 196.668 250.137 196.58 250.477 196.58H251.497V196.25C251.497 196.046 251.435 195.89 251.311 195.782C251.191 195.67 251.019 195.614 250.795 195.614C250.599 195.614 250.435 195.656 250.303 195.74C250.171 195.82 250.095 195.93 250.075 196.07H249.535C249.571 195.786 249.705 195.56 249.937 195.392C250.169 195.224 250.459 195.14 250.807 195.14C251.187 195.14 251.487 195.238 251.707 195.434C251.927 195.63 252.037 195.896 252.037 196.232V198.5H251.509V197.87H251.419L251.509 197.78C251.509 198.02 251.415 198.21 251.227 198.35C251.043 198.49 250.797 198.56 250.489 198.56ZM250.621 198.134C250.877 198.134 251.087 198.07 251.251 197.942C251.415 197.814 251.497 197.65 251.497 197.45V196.982H250.489C250.309 196.982 250.167 197.032 250.063 197.132C249.959 197.232 249.907 197.368 249.907 197.54C249.907 197.724 249.969 197.87 250.093 197.978C250.221 198.082 250.397 198.134 250.621 198.134ZM254.398 198.56C254.134 198.56 253.902 198.51 253.702 198.41C253.506 198.31 253.354 198.166 253.246 197.978C253.138 197.786 253.084 197.56 253.084 197.3V196.4C253.084 196.136 253.138 195.91 253.246 195.722C253.354 195.534 253.506 195.39 253.702 195.29C253.902 195.19 254.134 195.14 254.398 195.14C254.778 195.14 255.084 195.242 255.316 195.446C255.548 195.65 255.67 195.928 255.682 196.28H255.142C255.13 196.068 255.058 195.906 254.926 195.794C254.798 195.678 254.622 195.62 254.398 195.62C254.162 195.62 253.974 195.688 253.834 195.824C253.694 195.956 253.624 196.146 253.624 196.394V197.3C253.624 197.548 253.694 197.74 253.834 197.876C253.974 198.012 254.162 198.08 254.398 198.08C254.622 198.08 254.798 198.022 254.926 197.906C255.058 197.79 255.13 197.628 255.142 197.42H255.682C255.67 197.772 255.548 198.05 255.316 198.254C255.084 198.458 254.778 198.56 254.398 198.56ZM256.742 198.5V194.12H257.282V196.562H257.918L258.878 195.2H259.496L258.386 196.772L259.514 198.5H258.884L257.924 197.03H257.282V198.5H256.742Z" fill="black"/>
<g clip-path="url(#clip1_1058_142)">
<path d="M279.706 213.229C279.41 213.084 279.281 213.361 279.109 213.502C279.049 213.547 278.999 213.607 278.949 213.66C278.515 214.124 278.008 214.427 277.347 214.391C276.38 214.337 275.554 214.64 274.823 215.38C274.668 214.468 274.153 213.924 273.369 213.574C272.958 213.392 272.543 213.211 272.254 212.816C272.054 212.535 271.999 212.221 271.899 211.913C271.834 211.726 271.77 211.536 271.557 211.504C271.323 211.468 271.232 211.663 271.141 211.826C270.776 212.494 270.635 213.229 270.649 213.973C270.681 215.648 271.388 216.983 272.793 217.932C272.953 218.04 272.994 218.15 272.944 218.308C272.848 218.635 272.734 218.952 272.634 219.28C272.569 219.489 272.474 219.533 272.25 219.444C271.493 219.118 270.805 218.651 270.224 218.067C269.225 217.101 268.322 216.035 267.195 215.199C266.933 215.006 266.665 214.823 266.391 214.65C265.242 213.533 266.542 212.616 266.843 212.508C267.158 212.393 266.952 212.004 265.935 212.008C264.917 212.013 263.986 212.353 262.8 212.806C262.623 212.874 262.442 212.927 262.257 212.966C261.149 212.757 260.015 212.717 258.894 212.847C256.695 213.092 254.939 214.133 253.647 215.907C252.096 218.04 251.73 220.464 252.177 222.991C252.647 225.656 254.008 227.862 256.097 229.587C258.265 231.375 260.76 232.251 263.608 232.083C265.337 231.984 267.263 231.752 269.435 229.913C269.983 230.186 270.557 230.295 271.511 230.376C272.246 230.445 272.953 230.341 273.5 230.227C274.358 230.045 274.298 229.251 273.989 229.106C271.475 227.935 272.027 228.412 271.524 228.026C272.803 226.514 274.728 224.943 275.481 219.855C275.54 219.451 275.49 219.196 275.481 218.87C275.477 218.671 275.522 218.593 275.75 218.571C276.381 218.505 276.993 218.317 277.552 218.017C279.181 217.127 279.839 215.666 279.994 213.914C280.017 213.645 279.989 213.37 279.706 213.229ZM265.511 229C263.074 227.084 261.892 226.453 261.404 226.48C260.947 226.508 261.03 227.029 261.13 227.37C261.235 227.706 261.372 227.937 261.563 228.232C261.696 228.427 261.787 228.717 261.431 228.936C260.646 229.421 259.282 228.772 259.218 228.741C257.63 227.805 256.301 226.571 255.367 224.883C254.464 223.257 253.939 221.514 253.853 219.654C253.829 219.203 253.961 219.045 254.409 218.963C254.997 218.85 255.6 218.835 256.193 218.917C258.68 219.281 260.797 220.393 262.572 222.154C263.585 223.157 264.351 224.355 265.141 225.527C265.981 226.77 266.884 227.956 268.035 228.926C268.441 229.267 268.764 229.526 269.074 229.716C268.138 229.821 266.577 229.844 265.511 229ZM266.678 221.486C266.678 221.428 266.691 221.371 266.718 221.32C266.745 221.269 266.784 221.224 266.832 221.192C266.879 221.159 266.934 221.138 266.992 221.131C267.049 221.124 267.108 221.131 267.162 221.152C267.231 221.176 267.291 221.222 267.332 221.282C267.374 221.342 267.396 221.414 267.395 221.488C267.395 221.535 267.386 221.582 267.368 221.626C267.35 221.669 267.323 221.709 267.289 221.742C267.256 221.776 267.216 221.802 267.172 221.82C267.128 221.838 267.081 221.846 267.034 221.846C266.987 221.846 266.94 221.837 266.897 221.819C266.853 221.801 266.814 221.774 266.781 221.741C266.748 221.707 266.722 221.667 266.704 221.624C266.687 221.58 266.677 221.533 266.678 221.486ZM270.306 223.348C270.073 223.443 269.841 223.525 269.618 223.535C269.283 223.547 268.954 223.442 268.687 223.239C268.367 222.97 268.138 222.821 268.043 222.354C268.01 222.126 268.016 221.894 268.061 221.668C268.143 221.287 268.052 221.042 267.783 220.82C267.564 220.638 267.286 220.588 266.98 220.588C266.875 220.582 266.774 220.551 266.684 220.497C266.555 220.434 266.45 220.275 266.551 220.079C266.583 220.016 266.737 219.862 266.775 219.834C267.19 219.599 267.669 219.676 268.112 219.853C268.522 220.021 268.833 220.329 269.279 220.765C269.736 221.292 269.818 221.437 270.079 221.832C270.284 222.141 270.471 222.458 270.598 222.821C270.676 223.049 270.576 223.234 270.306 223.348Z" fill="#4D6BFE"/>
</g>
<path fill-rule="evenodd" clip-rule="evenodd" d="M305.483 224.448C306.174 224.448 307.548 224.41 309.447 223.628C311.66 222.717 316.065 221.061 319.241 219.363C321.464 218.175 322.438 216.602 322.438 214.486C322.438 213.787 322.301 213.095 322.033 212.45C321.766 211.804 321.374 211.218 320.88 210.724C320.385 210.23 319.799 209.838 319.153 209.571C318.508 209.303 317.816 209.166 317.117 209.166H304.807C302.781 209.166 300.838 209.972 299.405 211.405C297.972 212.838 297.167 214.781 297.167 216.808C297.167 221.028 300.369 224.448 305.483 224.448Z" fill="#39594D"/>
<path fill-rule="evenodd" clip-rule="evenodd" d="M307.564 229.712C307.564 228.7 307.864 227.711 308.426 226.87C308.988 226.028 309.786 225.372 310.72 224.985L314.597 223.375C318.518 221.748 322.834 224.63 322.834 228.875C322.834 229.657 322.68 230.432 322.38 231.154C322.081 231.877 321.642 232.533 321.089 233.086C320.536 233.639 319.88 234.078 319.157 234.377C318.434 234.676 317.66 234.83 316.878 234.83L312.681 234.829C312.009 234.829 311.344 234.696 310.723 234.439C310.102 234.182 309.538 233.805 309.063 233.33C308.588 232.854 308.211 232.29 307.954 231.669C307.697 231.048 307.564 230.383 307.564 229.711V229.712Z" fill="#D18EE2"/>
<path d="M301.572 225.455C300.994 225.455 300.421 225.569 299.886 225.79C299.352 226.011 298.866 226.336 298.457 226.745C298.048 227.154 297.723 227.64 297.502 228.174C297.281 228.709 297.167 229.282 297.167 229.86V230.431C297.186 231.587 297.658 232.689 298.482 233.5C299.306 234.31 300.416 234.765 301.572 234.765C302.728 234.765 303.837 234.31 304.661 233.5C305.485 232.689 305.958 231.587 305.976 230.431V229.859C305.976 229.281 305.863 228.708 305.641 228.174C305.42 227.64 305.096 227.154 304.687 226.745C304.278 226.336 303.792 226.012 303.258 225.79C302.723 225.569 302.151 225.455 301.572 225.455Z" fill="#FF7759"/>
<path fill-rule="evenodd" clip-rule="evenodd" d="M224.131 212H228.335L236 231.227H231.796L224.131 212ZM215.664 212H220.059L227.724 231.227H223.437L221.87 227.189H213.853L212.285 231.225H208L215.665 212.002L215.664 212ZM220.484 223.619L217.862 216.861L215.239 223.62H220.483L220.484 223.619Z" fill="black"/>
<path d="M366.834 222.285C366.834 221.229 366.746 220.459 366.558 219.66H354.262V224.424H361.479C361.334 225.607 360.549 227.389 358.802 228.587L358.778 228.746L362.665 231.698L362.934 231.723C365.409 229.486 366.834 226.191 366.834 222.285Z" fill="#4285F4"/>
<path d="M354.263 234.833C357.798 234.833 360.766 233.692 362.935 231.724L358.802 228.588C357.696 229.344 356.212 229.871 354.263 229.871C352.62 229.871 351.017 229.357 349.681 228.4C348.345 227.444 347.342 226.093 346.812 224.537L346.658 224.55L342.616 227.616L342.563 227.761C344.717 231.952 349.141 234.833 354.263 234.833Z" fill="#34A853"/>
<path d="M346.814 224.537C346.527 223.722 346.378 222.864 346.374 222C346.374 221.115 346.535 220.26 346.795 219.462L346.788 219.291L342.695 216.176L342.561 216.239C341.646 218.021 341.168 219.996 341.167 222C341.167 224.067 341.676 226.021 342.563 227.761L346.814 224.537Z" fill="#FBBC05"/>
<path d="M354.263 214.128C356.722 214.128 358.38 215.169 359.326 216.039L363.021 212.503C360.752 210.435 357.798 209.166 354.263 209.166C349.14 209.166 344.717 212.047 342.563 216.238L346.798 219.462C347.332 217.906 348.339 216.556 349.677 215.6C351.015 214.644 352.618 214.129 354.263 214.128Z" fill="#EB4335"/>
<g clip-path="url(#clip2_1058_142)">
<mask id="mask0_1058_142" style="mask-type:luminance" maskUnits="userSpaceOnUse" x="233" y="68" width="28" height="28">
<path d="M260.241 68H233.759C233.34 68 233 68.3396 233 68.7586V95.2414C233 95.6604 233.34 96 233.759 96H260.241C260.66 96 261 95.6604 261 95.2414V68.7586C261 68.3396 260.66 68 260.241 68Z" fill="white"/>
</mask>
<g mask="url(#mask0_1058_142)">
<path d="M242.89 77.8897C248.352 77.8897 252.78 73.4617 252.78 67.9995C252.78 62.5374 248.352 58.1094 242.89 58.1094C237.428 58.1094 233 62.5374 233 67.9995C233 73.4617 237.428 77.8897 242.89 77.8897Z" fill="black"/>
<path d="M233 95.9991C238.462 95.9991 242.89 91.5711 242.89 86.1089C242.89 80.6467 238.462 76.2188 233 76.2188C227.537 76.2188 223.109 80.6467 223.109 86.1089C223.109 91.5711 227.537 95.9991 233 95.9991Z" fill="black"/>
<path d="M261 87.7803C266.462 87.7803 270.89 83.3524 270.89 77.8902C270.89 72.428 266.462 68 261 68C255.537 68 251.109 72.428 251.109 77.8902C251.109 83.3524 255.537 87.7803 261 87.7803Z" fill="black"/>
<path d="M251.109 105.89C256.571 105.89 260.999 101.462 260.999 95.9995C260.999 90.5374 256.571 86.1094 251.109 86.1094C245.647 86.1094 241.219 90.5374 241.219 95.9995C241.219 101.462 245.647 105.89 251.109 105.89Z" fill="black"/>
</g>
</g>
<g clip-path="url(#clip3_1058_142)">
<path fill-rule="evenodd" clip-rule="evenodd" d="M350.739 20.101V17.4643C350.739 17.2427 350.823 17.0758 351.017 16.965L356.317 13.913C357.039 13.4965 357.899 13.3028 358.787 13.3028C362.117 13.3028 364.226 15.8835 364.226 18.6298C364.226 18.8247 364.226 19.0463 364.198 19.268L358.703 16.0492C358.554 15.9542 358.38 15.9037 358.203 15.9037C358.027 15.9037 357.853 15.9542 357.704 16.0492L350.739 20.101ZM363.116 30.3677V24.07C363.116 23.6815 362.949 23.405 362.616 23.2102L355.651 19.1583L357.926 17.854C358.008 17.7998 358.105 17.7708 358.203 17.7708C358.302 17.7708 358.399 17.7998 358.481 17.854L363.781 20.9072C365.309 21.7938 366.335 23.6815 366.335 25.5132C366.335 27.6225 365.087 29.565 363.115 30.37L363.116 30.3677ZM349.102 24.8202L346.827 23.4878C346.633 23.377 346.548 23.2102 346.548 22.9885V16.8822C346.548 13.913 348.824 11.6648 351.905 11.6648C353.071 11.6648 354.153 12.0533 355.069 12.7475L349.602 15.9115C349.269 16.1052 349.102 16.3828 349.102 16.7713V24.819V24.8202ZM354 27.6493L350.739 25.8177V21.9327L354 20.101L357.261 21.9327V25.8177L354 27.6493ZM356.095 36.0843C354.929 36.0843 353.847 35.697 352.931 35.0028L358.398 31.8388C358.731 31.6452 358.898 31.3675 358.898 30.979V22.9313L361.201 24.2637C361.396 24.3745 361.478 24.5413 361.478 24.763V30.8682C361.478 33.8373 359.175 36.0843 356.095 36.0843ZM349.519 29.8975L344.217 26.8443C342.691 25.9565 341.665 24.07 341.665 22.2383C341.661 21.1976 341.968 20.1794 342.547 19.3142C343.125 18.449 343.949 17.776 344.912 17.3815V23.7083C344.912 24.0968 345.078 24.3745 345.411 24.5693L352.349 28.5932L350.074 29.8975C349.992 29.9519 349.895 29.9809 349.797 29.9809C349.698 29.9809 349.601 29.9519 349.519 29.8975ZM349.213 34.4475C346.077 34.4475 343.774 32.0897 343.774 29.1753C343.774 28.9537 343.802 28.732 343.829 28.5103L349.296 31.672C349.63 31.8668 349.962 31.8668 350.295 31.672L357.26 27.6493V30.286C357.26 30.5077 357.178 30.6745 356.983 30.7853L351.683 33.8373C350.961 34.2538 350.101 34.4475 349.213 34.4475ZM356.095 37.7492C357.694 37.7493 359.244 37.1971 360.483 36.1861C361.722 35.175 362.573 33.7671 362.893 32.2005C366.001 31.3955 368 28.48 368 25.512C368 23.5695 367.168 21.683 365.669 20.3227C365.808 19.7393 365.891 19.1572 365.891 18.575C365.891 14.6072 362.672 11.6368 358.954 11.6368C358.205 11.6368 357.484 11.7477 356.76 11.9985C355.465 10.7238 353.723 10.0065 351.906 10C350.307 9.99993 348.757 10.5523 347.518 11.5636C346.279 12.5749 345.428 13.983 345.108 15.5498C341.998 16.3548 340 19.2692 340 22.2383C340 24.182 340.832 26.0685 342.331 27.4277C342.192 28.011 342.109 28.5943 342.109 29.1765C342.109 33.1443 345.328 36.1135 349.046 36.1135C349.795 36.1135 350.516 36.0027 351.24 35.753C352.535 37.0282 354.278 37.7456 356.095 37.7515V37.7492Z" fill="black"/>
</g>
<defs>
<linearGradient id="paint0_linear_1058_142" x1="348.166" y1="112.083" x2="352.833" y2="108" gradientUnits="userSpaceOnUse">
<stop stop-color="#08B962"/>
<stop offset="1" stop-color="#08B962" stop-opacity="0"/>
</linearGradient>
<linearGradient id="paint1_linear_1058_142" x1="349.333" y1="100.417" x2="353.416" y2="106.833" gradientUnits="userSpaceOnUse">
<stop stop-color="#F94543"/>
<stop offset="1" stop-color="#F94543" stop-opacity="0"/>
</linearGradient>
<linearGradient id="paint2_linear_1058_142" x1="344.083" y1="109.75" x2="360.416" y2="108" gradientUnits="userSpaceOnUse">
<stop stop-color="#FABC12"/>
<stop offset="0.46" stop-color="#FABC12" stop-opacity="0"/>
</linearGradient>
<clipPath id="clip0_1058_142">
<rect width="28" height="28" fill="white" transform="translate(340 52)"/>
</clipPath>
<clipPath id="clip1_1058_142">
<rect width="28" height="28" fill="white" transform="translate(252 208)"/>
</clipPath>
<clipPath id="clip2_1058_142">
<rect width="28" height="28" fill="white" transform="translate(233 68)"/>
</clipPath>
<clipPath id="clip3_1058_142">
<rect width="28" height="28" fill="white" transform="translate(340 10)"/>
</clipPath>
</defs>
</svg>
